<svg id="visual" viewBox="0 0 900 600" width="900" height="600" xmlns="http://www.w3.org/2000/svg" xmlns:xlink="http://www.w3.org/1999/xlink" version="1.1"><path d="M0 428L21.5 421.7C43 415.3 86 402.7 128.8 401.7C171.7 400.7 214.3 411.3 257.2 416.2C300 421 343 420 385.8 422.5C428.7 425 471.3 431 514.2 422C557 413 600 389 642.8 383.5C685.7 378 728.3 391 771.2 394.2C814 397.3 857 390.7 878.5 387.3L900 384L900 601L878.5 601C857 601 814 601 771.2 601C728.3 601 685.7 601 642.8 601C600 601 557 601 514.2 601C471.3 601 428.7 601 385.8 601C343 601 300 601 257.2 601C214.3 601 171.7 601 128.8 601C86 601 43 601 21.5 601L0 601Z" fill="#2a3b55"></path><path d="M0 478L21.5 465.7C43 453.3 86 428.7 128.8 425.8C171.7 423 214.3 442 257.2 448.5C300 455 343 449 385.8 450.8C428.7 452.7 471.3 462.3 514.2 459.3C557 456.3 600 440.7 642.8 440.3C685.7 440 728.3 455 771.2 463.2C814 471.3 857 472.7 878.5 473.3L900 474L900 601L878.5 601C857 601 814 601 771.2 601C728.3 601 685.7 601 642.8 601C600 601 557 601 514.2 601C471.3 601 428.7 601 385.8 601C343 601 300 601 257.2 601C214.3 601 171.7 601 128.8 601C86 601 43 601 21.5 601L0 601Z" fill="#1d2a3e"></path><path d="M0 455L21.5 456C43 457 86 459 128.8 457.8C171.7 456.7 214.3 452.3 257.2 449C300 445.7 343 443.3 385.8 449.3C428.7 455.3 471.3 469.7 514.2 476.3C557 483 600 482 642.8 483.8C685.7 485.7 728.3 490.3 771.2 491.3C814 492.3 857 489.7 878.5 488.3L900 487L900 601L878.5 601C857 601 814 601 771.2 601C728.3 601 685.7 601 642.8 601C600 601 557 601 514.2 601C471.3 601 428.7 601 385.8 601C343 601 300 601 257.2 601C214.3 601 171.7 601 128.8 601C86 601 43 601 21.5 601L0 601Z" fill="#111a28"></path><path d="M0 525L21.5 524.3C43 523.7 86 522.3 128.8 523.3C171.7 524.3 214.3 527.7 257.2 522.5C300 517.3 343 503.7 385.8 499.2C428.7 494.7 471.3 499.3 514.2 502.3C557 505.3 600 506.7 642.8 507C685.7 507.3 728.3 506.7 771.2 510.7C814 514.7 857 523.3 878.5 527.7L900 532L900 601L878.5 601C857 601 814 601 771.2 601C728.3 601 685.7 601 642.8 601C600 601 557 601 514.2 601C471.3 601 428.7 601 385.8 601C343 601 300 601 257.2 601C214.3 601 171.7 601 128.8 601C86 601 43 601 21.5 601L0 601Z" fill="#101823"></path><path d="M0 541L21.5 539C43 537 86 533 128.8 530.7C171.7 528.3 214.3 527.7 257.2 528.2C300 528.7 343 530.3 385.8 532.3C428.7 534.3 471.3 536.7 514.2 540.8C557 545 600 551 642.8 556.3C685.7 561.7 728.3 566.3 771.2 566.7C814 567 857 563 878.5 561L900 559L900 601L878.5 601C857 601 814 601 771.2 601C728.3 601 685.7 601 642.8 601C600 601 557 601 514.2 601C471.3 601 428.7 601 385.8 601C343 601 300 601 257.2 601C214.3 601 171.7 601 128.8 601C86 601 43 601 21.5 601L0 601Z" fill="#0f151f"></path></svg>