<svg viewBox="0 0 32 32" xml:space="preserve" xmlns="http://www.w3.org/2000/svg"><path d="M16 32c8.837 0 16-7.163 16-16S24.837 0 16 0 0 7.163 0 16s7.163 16 16 16zm0-29.809c7.626 0 13.809 6.182 13.809 13.809 0 7.626-6.182 13.809-13.809 13.809S2.191 23.626 2.191 16C2.191 8.374 8.374 2.191 16 2.191z" fill="#cccccc" class="fill-000000"></path><path d="M16 27.597c6.405 0 11.597-5.192 11.597-11.597S22.405 4.403 16 4.403 4.403 9.595 4.403 16 9.595 27.597 16 27.597zm-6.616-9.501c1.048 0 1.572 1.048 1.572 1.048.92 1.561 2.556 1.31 3.144 1.048 0-.524.229-1.316.524-1.572-2.289-.258-4.194-1.572-4.194-4.192s.526-3.144 1.05-3.668c-.106-.258-.544-1.213.016-2.62 0 0 1.03 0 2.078 1.572.519-.519 2.096-.524 2.62-.524.523 0 2.1.005 2.619.524 1.048-1.572 2.08-1.572 2.08-1.572.56 1.407.122 2.362.016 2.62.524.524 1.048 1.048 1.048 3.668s-1.903 3.934-4.192 4.192c.295.256.524 1.157.524 1.572v3.668H14.1s.006-1.243 0-2.096c-2.868.617-3.668-1.572-3.668-1.572-.524-1.048-1.048-1.572-1.048-1.572-1.048-.623 0-.524 0-.524z" fill="#cccccc" class="fill-000000"></path></svg>